<svg width="24" height="24" viewBox="0 0 24 24" fill="none" xmlns="http://www.w3.org/2000/svg">
<path d="M5 14.9V16.25C5 16.4667 4.92917 16.6458 4.7875 16.7875C4.64583 16.9292 4.46667 17 4.25 17H3.75C3.53333 17 3.35417 16.9292 3.2125 16.7875C3.07083 16.6458 3 16.4667 3 16.25V8.15L5.125 1.75C5.175 1.51667 5.30417 1.33333 5.5125 1.2C5.72083 1.06667 5.95 1 6.2 1H17.8C18.05 1 18.2792 1.06667 18.4875 1.2C18.6958 1.33333 18.825 1.51667 18.875 1.75L21 8.15V16.25C21 16.4667 20.9292 16.6458 20.7875 16.7875C20.6458 16.9292 20.4667 17 20.25 17H19.725C19.5083 17 19.3292 16.9292 19.1875 16.7875C19.0458 16.6458 18.975 16.4667 18.975 16.25V14.9H5ZM5.075 6.65H18.925L17.55 2.5H6.45L5.075 6.65ZM7.15 12.15C7.53333 12.15 7.85417 12.0167 8.1125 11.75C8.37083 11.4833 8.5 11.1667 8.5 10.8C8.5 10.4167 8.37083 10.0875 8.1125 9.8125C7.85417 9.5375 7.53333 9.4 7.15 9.4C6.76667 9.4 6.4375 9.5375 6.1625 9.8125C5.8875 10.0875 5.75 10.4167 5.75 10.8C5.75 11.1833 5.8875 11.5042 6.1625 11.7625C6.4375 12.0208 6.76667 12.15 7.15 12.15ZM16.875 12.15C17.2583 12.15 17.5875 12.0167 17.8625 11.75C18.1375 11.4833 18.275 11.1667 18.275 10.8C18.275 10.4167 18.1375 10.0875 17.8625 9.8125C17.5875 9.5375 17.2583 9.4 16.875 9.4C16.4917 9.4 16.1708 9.5375 15.9125 9.8125C15.6542 10.0875 15.525 10.4167 15.525 10.8C15.525 11.1833 15.6583 11.5042 15.925 11.7625C16.1917 12.0208 16.5083 12.15 16.875 12.15ZM12.9 23L7.3 20.05H11V18.15L16.7 21H12.9V23Z" fill="url(#paint0_linear_7_143)"/>
<defs>
<linearGradient id="paint0_linear_7_143" x1="12" y1="1" x2="12" y2="23" gradientUnits="userSpaceOnUse">
<stop stop-color="#FEBC3D"/>
<stop offset="1" stop-color="#EB8B16"/>
</linearGradient>
</defs>
</svg>
