<svg width="50" height="50" viewBox="0 0 50 50" fill="none" xmlns="http://www.w3.org/2000/svg">
<path d="M50 24.9986C50 38.8066 38.8068 50 25.0004 50C11.1925 50 0 38.8066 0 24.9986C0 11.193 11.1925 0 25.0004 0C38.8068 0 50 11.193 50 24.9986Z" fill="#CC6201"/>
<path d="M34.21 32.8755C34.21 36.6017 36.0737 39.6225 38.3744 39.6225C40.6735 39.6225 42.5381 36.6017 42.5381 32.8755C42.5381 29.152 40.6735 26.1298 38.3744 26.1298C36.0737 26.1298 34.21 29.152 34.21 32.8755ZM35.8111 32.8755C35.8111 30.5831 36.9579 28.7239 38.3744 28.7239C39.7893 28.7239 40.9369 30.5831 40.9369 32.8755C40.9369 35.1705 39.7893 37.0284 38.3744 37.0284C36.9579 37.0284 35.8111 35.1705 35.8111 32.8755Z" fill="black"/>
<path d="M4.71154 28.5948C4.71394 28.5961 4.71629 28.5973 4.71791 28.6013C4.71634 28.5974 4.71394 28.5961 4.71238 28.5948C4.74654 28.6283 4.78002 28.6644 4.81345 28.7018C4.44582 28.8539 3.91736 28.9738 3.20751 28.9197C3.23375 29.2665 3.26722 29.585 3.28631 29.888C3.29503 30.0427 3.29982 30.191 3.29904 30.3379C3.29904 30.3404 3.29904 30.3444 3.29904 30.3457C3.29821 30.414 3.29586 30.481 3.29184 30.548C3.29184 30.5545 3.29184 30.5609 3.29184 30.5687C3.28631 30.6396 3.2799 30.7143 3.27036 30.7866C3.17007 31.5499 3.30853 32.3789 3.78683 32.8314C4.26507 33.2852 5.41346 33.6669 6.52359 33.8474C7.77379 34.8002 7.4833 34.425 7.4833 34.425C7.4833 34.425 7.43 33.3484 7.4833 32.0618C7.53665 30.7802 7.71491 29.4934 7.87721 28.7198C7.99022 28.2673 8.15257 27.7334 8.39769 27.1223C8.98576 25.6654 10.053 24.8131 11.5713 24.594C11.8093 24.5591 12.0552 24.5411 12.3019 24.5411C13.5895 24.5411 14.846 25.0066 15.5814 25.7569C16.2579 26.4454 16.9876 28.752 17.2367 30.111C17.2375 30.1186 17.3577 31.359 17.3577 32.3918C17.3577 33.4284 17.3577 34.826 17.3577 34.826H33.5602C33.5602 34.826 33.4957 31.8387 33.5602 30.3289C33.6772 29.4689 33.9366 28.1899 34.4101 26.88C35.0531 25.0981 36.2436 24.3387 38.3867 24.3387C40.4797 24.3387 41.5205 25.6255 42.3339 27.0153C43.0016 28.1563 43.2268 30.0143 43.3413 31.2379C43.432 32.4318 43.4448 34.1182 43.4559 35.7079C43.8324 35.677 44.2151 35.3675 44.4141 34.9162C45.0754 35.0555 46.0407 34.2187 46.6026 33.6849C46.8087 33.4877 46.9376 33.213 47.0188 32.9423C46.9965 32.9681 46.9742 32.9862 46.9503 33.0029C47.1334 32.8714 47.2798 32.5323 47.3386 31.9766C47.4183 31.2262 47.5464 28.6114 47.5464 28.6114L47.2105 28.3768C47.2105 28.3768 46.9877 27.2654 46.8596 26.5125C46.9161 25.9362 46.9241 25.3715 46.9057 24.8493C46.4768 24.879 45.6062 24.937 45.069 24.9498C44.3337 24.9628 43.1671 23.8462 41.9041 22.6549C43.1105 21.2198 44.0297 21.644 45.1009 22.1379C45.7932 22.455 46.4171 22.9656 46.7736 23.2892C46.7004 22.7542 46.628 22.4202 46.628 22.4202C46.628 22.4202 45.069 20.6732 40.1056 19.2743C35.143 17.8766 34.4904 17.5272 34.4904 17.5272C34.4904 17.5272 31.8627 14.5747 30.6339 13.3318C29.4052 12.0889 27.6457 9.91258 25.4636 9.64051C23.2815 9.36979 19.6789 9.52703 16.861 10.0299C14.0431 10.5353 10.4333 13.747 8.93799 14.7295C7.44194 15.7131 6.08509 16.8259 5.72931 16.8259C5.37441 16.8259 4.542 16.8259 4.542 16.8259C4.542 16.8259 4.3422 17.1649 4.00321 17.7065C4.11701 18.0648 4.17912 18.5393 4.22204 19.1286C4.22204 19.1272 4.22204 19.126 4.22126 19.1234L5.01226 17.9734C5.01226 17.9734 6.09928 18.0508 7.03756 18.2261C7.97343 18.4001 8.60928 18.8669 7.89302 19.7604C7.17519 20.6538 6.13271 21.702 6.13271 21.702C6.13271 21.702 4.98833 21.84 4.30153 21.8452C4.22836 23.0984 3.92593 24.3412 3.66329 24.8041C3.33942 25.374 3.16992 25.7117 3.16992 26.2288C3.16992 26.7458 3.16992 28.1189 3.16992 28.1189C3.16992 28.1189 3.44764 28.0931 3.98642 28.1434C4.21015 28.1668 4.46163 28.3421 4.71154 28.5948ZM31.1838 17.8948C31.3804 17.6782 31.5237 17.049 31.5237 16.6519V16.6493C31.8849 17.1419 32.2017 17.5944 32.4452 17.9528C32.111 17.9374 31.6756 17.9193 31.1838 17.8948ZM22.4117 11.0485C22.9847 10.9982 23.502 10.9699 23.9182 10.9699C24.0217 10.9699 24.1187 10.9712 24.2087 10.9751C25.9141 11.046 27.403 11.9175 29.348 13.9844C29.6846 14.3415 30.0196 14.7283 30.3427 15.1229C30.1295 15.2144 29.9703 15.5612 29.9703 15.9802V17.0916C29.9703 17.4153 30.0658 17.695 30.2067 17.8459C28.6501 17.7673 24.5135 17.3908 23.5227 17.2837L22.4117 11.0485ZM21.4472 17.0607C19.445 16.8465 17.2151 16.6171 15.6235 16.4689L15.4978 12.2786C16.6788 11.8841 19.0296 11.4457 21.0955 11.1891L21.4472 17.0607ZM13.576 16.3064L14.546 12.6537C14.7378 12.5635 14.9343 12.4836 15.1317 12.4088C15.1652 13.5279 15.2185 15.3149 15.2543 16.4353C14.4847 16.3631 13.9046 16.318 13.6396 16.3102C13.6182 16.309 13.5975 16.3076 13.576 16.3064ZM11.6485 14.7205C11.8331 14.3196 12.7379 13.5834 13.911 12.9645L13.0515 16.2072C12.5541 16.0331 12.2939 15.6489 11.9843 15.1937C11.8801 15.039 11.7711 14.883 11.6485 14.7205Z" fill="black"/>
<path d="M8.21313 32.8755C8.21313 36.6017 10.0777 39.6225 12.3776 39.6225C14.6775 39.6225 16.5421 36.6017 16.5421 32.8755C16.5421 29.152 14.6775 26.1298 12.3776 26.1298C10.0777 26.1298 8.21313 29.152 8.21313 32.8755ZM9.81432 32.8755C9.81432 30.5831 10.9627 28.7239 12.3776 28.7239C13.7934 28.7239 14.9409 30.5831 14.9409 32.8755C14.9409 35.1705 13.7933 37.0284 12.3776 37.0284C10.9627 37.0284 9.81432 35.1705 9.81432 32.8755Z" fill="black"/>
</svg>
